<svg width="29" height="36" viewBox="0 0 29 36" fill="none" xmlns="http://www.w3.org/2000/svg">
<path d="M1.49658 13.0451C-1.50347 18.2511 0.403717 26.1516 3.72129 30.9419C5.37728 33.3368 7.05387 35.4866 9.35024 35.4866C9.39353 35.4866 9.43692 35.4858 9.48137 35.484C10.5603 35.441 11.3399 35.1088 12.0937 34.7878C12.9401 34.4271 13.8154 34.0542 15.1883 34.0542C16.4944 34.0542 17.3279 34.415 18.134 34.7638C18.9284 35.1075 19.7467 35.4631 20.9558 35.4404C23.5425 35.3922 25.1306 33.0725 26.5318 31.026C27.994 28.8893 28.7274 26.8147 28.9749 26.0219L28.9849 25.9903C29.032 25.8494 28.9655 25.6956 28.8304 25.6336C28.8267 25.6318 28.813 25.6261 28.8091 25.6245C28.3536 25.4382 24.358 23.6657 24.316 18.8344C24.277 14.9093 27.3135 12.8307 27.9224 12.4539L27.9508 12.4363C28.0168 12.3938 28.0627 12.3264 28.0783 12.2494C28.0939 12.1725 28.0776 12.0925 28.0334 12.0278C25.9375 8.96058 22.7251 8.49832 21.4318 8.44271C21.2441 8.42397 21.0504 8.41455 20.8559 8.41455C19.3368 8.41455 17.8816 8.98827 16.7126 9.44924C15.9056 9.76745 15.2085 10.0423 14.7278 10.0423C14.1876 10.0423 13.4866 9.76408 12.6748 9.44203C11.5893 9.01119 10.3589 8.52299 9.05635 8.52299C9.02528 8.52299 8.99468 8.52334 8.96455 8.52392C5.93599 8.56848 3.07427 10.3011 1.49658 13.0451Z" fill="black"/>
<path d="M21.4345 0.000223557C19.6005 0.0749195 17.4004 1.20385 16.0855 2.74408C14.9679 4.03869 13.8762 6.19719 14.1638 8.37292C14.1819 8.50905 14.2926 8.61411 14.4296 8.6247C14.5534 8.63435 14.6797 8.63924 14.8056 8.63936C16.5989 8.63936 18.5334 7.64725 19.8546 6.04978C21.2451 4.36296 21.9482 2.19817 21.7355 0.2591C21.7187 0.107148 21.585 -0.00571023 21.4345 0.000223557Z" fill="black"/>
</svg>
