<svg width="35" height="35" viewBox="0 0 35 35" fill="none" xmlns="http://www.w3.org/2000/svg">
<path d="M7.85868 14.2398C9.25033 10.1188 13.2132 7.15904 17.9072 7.15904C20.4304 7.15904 22.7095 8.03404 24.5002 9.46585L29.7095 4.37497C26.5351 1.67044 22.4653 0 17.9072 0C10.8489 0 4.77204 3.93499 1.85059 9.69789L7.85868 14.2398Z" fill="#EA4335"/>
<path d="M23.9368 26.2686C22.3105 27.2949 20.244 27.8412 17.907 27.8412C13.2311 27.8412 9.28054 24.904 7.87464 20.8076L1.84668 25.2805C4.76451 31.0534 10.8413 35.0002 17.907 35.0002C22.2835 35.0002 26.4656 33.4797 29.5976 30.6246L23.9368 26.2686Z" fill="#34A853"/>
<path d="M29.5978 30.6249C32.8732 27.6391 35.0002 23.1934 35.0002 17.5006C35.0002 16.4666 34.8374 15.3529 34.5932 14.3188H17.9072V21.0802H27.5119C27.0379 23.3538 25.7658 25.1149 23.937 26.2689L29.5978 30.6249Z" fill="#4A90E2"/>
<path d="M7.87455 20.807C7.51842 19.7694 7.32557 18.6573 7.32557 17.4998C7.32557 16.3597 7.51262 15.2639 7.85846 14.2397L1.85037 9.69775C0.651495 12.0462 0 14.693 0 17.4998C0 20.2991 0.663722 22.9395 1.8466 25.2799L7.87455 20.807Z" fill="#FBBC05"/>
</svg>
