<svg width="100" height="111" viewBox="0 0 100 111" fill="none" xmlns="http://www.w3.org/2000/svg">
<path d="M95.2755 27.1698C92.6002 22.8419 88.7794 19.349 84.2256 17.0747L50.0615 0L15.8974 17.0747C11.3437 19.349 7.5228 22.8419 4.84753 27.1698C2.17226 31.4976 0.757812 36.478 0.757812 41.564V60.8809C0.757812 69.9525 8.11476 77.3095 17.1934 77.3095H22.672C33.2451 77.3095 42.0933 84.8328 44.1382 94.8032C44.663 97.3558 46.871 99.211 49.4759 99.211H50.6471C53.2552 99.211 55.4633 97.3558 55.9849 94.8032C58.0329 84.8296 66.8811 77.3095 77.451 77.3095H82.9296C92.005 77.3095 99.3652 69.9557 99.3652 60.8809V41.564C99.3652 36.478 97.9507 31.4976 95.2755 27.1698ZM50.0615 81.0712C47.6263 77.4118 44.4805 74.2643 40.8196 71.8365C44.4805 69.4055 47.6295 66.258 50.0615 62.5986C52.4968 66.258 55.6424 69.4055 59.3033 71.8365C55.6424 74.2675 52.4968 77.4118 50.0615 81.0712ZM88.4113 60.8841C88.4113 63.9069 85.9601 66.3603 82.9328 66.3603H77.4542C66.8811 66.3603 58.0329 58.837 55.9881 48.8666C55.4633 46.314 53.2552 44.4588 50.6503 44.4588H49.4791C46.871 44.4588 44.663 46.314 44.1414 48.8666C42.0933 58.8402 33.2483 66.3603 22.6752 66.3603H17.1966C14.1725 66.3603 11.7181 63.9101 11.7181 60.8841V41.5672C11.7181 35.3041 15.1998 29.6744 20.8031 26.8723L50.0679 12.2478L79.3327 26.8755C84.936 29.6744 88.4177 35.3041 88.4177 41.5704V60.8841H88.4113Z" fill="#DB9080"/>
<path d="M17.1896 110.167H28.1467C31.1707 110.167 33.6252 107.717 33.6252 104.691C33.6252 101.668 31.1739 99.2146 28.1467 99.2146H17.1896C14.1655 99.2146 11.711 96.7644 11.711 93.7384C11.711 90.7156 9.25969 88.2622 6.23241 88.2622C3.20833 88.2622 0.753906 90.7124 0.753906 93.7384C0.753906 102.813 8.11413 110.167 17.1896 110.167Z" fill="#DB9080"/>
<path d="M93.8869 88.2651C90.8628 88.2651 88.4083 90.7153 88.4083 93.7413C88.4083 96.7641 85.9571 99.2175 82.9298 99.2175H71.9727C68.9486 99.2175 66.4941 101.668 66.4941 104.694C66.4941 107.716 68.9454 110.17 71.9727 110.17H82.9298C92.0052 110.17 99.3654 102.816 99.3654 93.7413C99.3654 90.7153 96.9142 88.2651 93.8869 88.2651Z" fill="#DB9080"/>
</svg>
